<?xml version="1.0" standalone="no"?>
<!DOCTYPE svg PUBLIC "-//W3C//DTD SVG 20010904//EN"
 "http://www.w3.org/TR/2001/REC-SVG-20010904/DTD/svg10.dtd">
<svg version="1.0" xmlns="http://www.w3.org/2000/svg"
 width="128.000000pt" height="128.000000pt" viewBox="0 0 128.000000 128.000000"
 preserveAspectRatio="xMidYMid meet">

<g transform="translate(0.000000,128.000000) scale(0.100000,-0.100000)"
fill="#000000" stroke="none">
<path d="M235 1191 c-11 -5 -31 -21 -45 -36 l-25 -27 0 -489 0 -489 33 -32 32
-33 130 0 130 0 32 33 33 32 0 490 0 490 -33 32 -32 33 -118 2 c-64 2 -126 -1
-137 -6z m233 -83 c17 -17 17 -919 0 -936 -16 -16 -200 -16 -216 0 -17 17 -17
919 0 936 16 16 200 16 216 0z"/>
<path d="M795 1191 c-11 -5 -31 -21 -45 -36 l-25 -27 0 -489 0 -489 33 -32 32
-33 130 0 130 0 32 33 33 32 0 490 0 490 -33 32 -32 33 -118 2 c-64 2 -126 -1
-137 -6z m233 -83 c17 -17 17 -919 0 -936 -16 -16 -200 -16 -216 0 -17 17 -17
919 0 936 16 16 200 16 216 0z"/>
</g>
</svg>
