<?xml version="1.0" standalone="no"?>
<!DOCTYPE svg PUBLIC "-//W3C//DTD SVG 20010904//EN"
 "http://www.w3.org/TR/2001/REC-SVG-20010904/DTD/svg10.dtd">
<svg version="1.0" xmlns="http://www.w3.org/2000/svg"
 width="128.000000pt" height="128.000000pt" viewBox="0 0 128.000000 128.000000"
 preserveAspectRatio="xMidYMid meet">

<g transform="translate(0.000000,128.000000) scale(0.100000,-0.100000)"
fill="#000000" stroke="none">
<path d="M155 1191 c-11 -5 -31 -21 -45 -36 l-25 -27 0 -489 0 -489 33 -32
c32 -32 34 -33 122 -33 88 0 90 1 122 33 l33 32 0 490 0 490 -33 32 c-30 31
-37 33 -110 35 -42 2 -86 -1 -97 -6z m153 -83 c17 -17 17 -919 0 -936 -16 -16
-120 -16 -136 0 -17 17 -17 919 0 936 7 7 37 12 68 12 31 0 61 -5 68 -12z"/>
<path d="M1003 1173 c-22 -16 -144 -125 -272 -243 -331 -307 -330 -274 -5
-575 125 -116 242 -223 261 -238 64 -55 151 -43 193 26 19 31 20 53 20 497 0
444 -1 466 -20 497 -40 66 -112 80 -177 36z m101 -69 c14 -14 16 -70 16 -464
0 -394 -2 -450 -16 -464 -8 -9 -23 -16 -32 -16 -19 0 -491 432 -506 462 -5 11
-5 25 0 36 15 30 487 462 506 462 9 0 24 -7 32 -16z"/>
</g>
</svg>
