<?xml version="1.0" standalone="no"?>
<!DOCTYPE svg PUBLIC "-//W3C//DTD SVG 20010904//EN"
 "http://www.w3.org/TR/2001/REC-SVG-20010904/DTD/svg10.dtd">
<svg version="1.0" xmlns="http://www.w3.org/2000/svg"
 width="128.000000pt" height="128.000000pt" viewBox="0 0 128.000000 128.000000"
 preserveAspectRatio="xMidYMid meet">

<g transform="translate(0.000000,128.000000) scale(0.100000,-0.100000)"
fill="#000000" stroke="none">
<path d="M143 1180 c-64 -39 -63 -31 -63 -542 0 -442 1 -464 20 -495 40 -67
129 -81 188 -31 16 13 133 120 261 238 254 235 266 251 243 328 -10 32 -57 80
-264 271 -139 128 -263 237 -276 242 -37 14 -74 10 -109 -11z m322 -282 c132
-121 244 -229 249 -239 5 -11 5 -27 0 -38 -14 -30 -487 -461 -506 -461 -9 0
-24 7 -32 16 -14 14 -16 70 -16 464 0 394 2 450 16 464 8 9 23 16 32 16 9 0
125 -100 257 -222z"/>
<path d="M955 1191 c-11 -5 -31 -21 -45 -36 l-25 -27 0 -489 0 -489 33 -32
c32 -32 34 -33 122 -33 88 0 90 1 122 33 l33 32 0 490 0 490 -33 32 c-30 31
-37 33 -110 35 -42 2 -86 -1 -97 -6z m153 -83 c17 -17 17 -919 0 -936 -16 -16
-120 -16 -136 0 -17 17 -17 919 0 936 7 7 37 12 68 12 31 0 61 -5 68 -12z"/>
</g>
</svg>
