<?xml version="1.0" standalone="no"?>
<!DOCTYPE svg PUBLIC "-//W3C//DTD SVG 20010904//EN"
 "http://www.w3.org/TR/2001/REC-SVG-20010904/DTD/svg10.dtd">
<svg version="1.0" xmlns="http://www.w3.org/2000/svg"
 width="128.000000pt" height="128.000000pt" viewBox="0 0 128.000000 128.000000"
 preserveAspectRatio="xMidYMid meet">

<g transform="translate(0.000000,128.000000) scale(0.100000,-0.100000)"
fill="#000000" stroke="none">
<path d="M245 1190 c-11 -4 -33 -22 -50 -40 l-30 -31 -3 -467 c-2 -438 -1
-469 16 -501 21 -40 73 -71 118 -71 35 0 61 15 464 270 151 95 290 187 308
204 63 59 66 151 5 207 -23 22 -615 369 -720 423 -34 17 -76 20 -108 6z m88
-86 c112 -58 675 -389 690 -406 23 -28 21 -60 -5 -85 -36 -33 -710 -453 -726
-453 -9 0 -24 7 -34 17 -17 15 -18 43 -18 461 0 400 2 447 17 464 20 22 35 23
76 2z"/>
</g>
</svg>
